<?xml version="1.0" encoding="utf-8"?>
<svg xmlns="http://www.w3.org/2000/svg" width="340" height="340" class="segno"><path transform="scale(4)" class="qrline" stroke="#ff6700" d="M4 4.5h7m3 0h5m1 0h2m2 0h1m1 0h1m2 0h3m1 0h3m4 0h2m3 0h2m1 0h1m1 0h1m3 0h3m1 0h4m2 0h1m1 0h3m5 0h7m-77 1h1m5 0h1m1 0h2m2 0h1m1 0h1m1 0h1m2 0h2m2 0h1m4 0h1m5 0h5m2 0h1m6 0h3m1 0h2m1 0h1m5 0h2m2 0h2m1 0h1m1 0h1m5 0h1m-77 1h1m1 0h3m1 0h1m3 0h3m2 0h1m5 0h1m1 0h2m2 0h3m2 0h4m3 0h3m3 0h2m1 0h2m3 0h1m1 0h6m1 0h1m1 0h2m2 0h1m1 0h1m1 0h3m1 0h1m-77 1h1m1 0h3m1 0h1m1 0h1m2 0h2m5 0h8m2 0h1m2 0h1m2 0h1m1 0h2m3 0h3m2 0h1m1 0h4m1 0h2m1 0h3m1 0h2m1 0h1m4 0h1m1 0h1m1 0h3m1 0h1m-77 1h1m1 0h3m1 0h1m2 0h3m1 0h2m1 0h3m3 0h1m1 0h10m1 0h3m1 0h1m1 0h3m2 0h6m2 0h2m1 0h1m1 0h1m2 0h1m1 0h5m1 0h1m1 0h3m1 0h1m-77 1h1m5 0h1m1 0h1m1 0h3m2 0h2m2 0h3m1 0h2m3 0h1m5 0h1m2 0h2m2 0h1m1 0h4m3 0h1m2 0h2m1 0h1m1 0h2m2 0h1m2 0h2m3 0h1m5 0h1m-77 1h7m1 0h1m1 0h1m1 0h1m1 0h1m1 0h1m1 0h1m1 0h1m1 0h1m1 0h1m1 0h1m1 0h1m1 0h1m1 0h1m1 0h1m1 0h1m1 0h1m1 0h1m1 0h1m1 0h1m1 0h1m1 0h1m1 0h1m1 0h1m1 0h1m1 0h1m1 0h1m1 0h1m1 0h1m1 0h1m1 0h1m1 0h1m1 0h7m-68 1h1m1 0h2m1 0h2m2 0h2m1 0h1m1 0h2m3 0h1m3 0h1m1 0h7m1 0h3m1 0h1m3 0h6m2 0h4m2 0h1m1 0h1m-67 1h5m1 0h6m2 0h1m1 0h1m2 0h3m1 0h7m1 0h1m1 0h4m6 0h1m1 0h7m1 0h1m4 0h1m3 0h8m1 0h1m1 0h1m1 0h1m-75 1h1m1 0h3m3 0h2m2 0h1m8 0h1m1 0h4m2 0h4m1 0h1m1 0h1m2 0h1m1 0h2m1 0h1m1 0h2m5 0h4m1 0h2m5 0h1m3 0h2m1 0h1m2 0h1m-74 1h1m2 0h7m1 0h1m1 0h2m1 0h4m2 0h3m1 0h1m3 0h2m3 0h1m1 0h2m1 0h2m1 0h1m1 0h3m1 0h2m4 0h6m1 0h3m3 0h1m-71 1h1m1 0h1m3 0h6m1 0h6m1 0h2m1 0h1m1 0h3m1 0h1m1 0h1m2 0h1m5 0h1m2 0h2m1 0h2m3 0h1m1 0h1m1 0h1m1 0h1m2 0h1m2 0h1m3 0h5m-73 1h1m3 0h1m1 0h1m1 0h4m3 0h2m1 0h1m2 0h1m1 0h3m2 0h4m1 0h4m5 0h2m3 0h1m2 0h2m2 0h1m2 0h2m1 0h1m1 0h7m1 0h1m1 0h1m1 0h1m-75 1h1m1 0h2m1 0h1m1 0h1m1 0h1m2 0h3m1 0h1m5 0h2m2 0h1m2 0h4m3 0h2m3 0h8m1 0h2m3 0h1m1 0h1m1 0h2m2 0h1m2 0h1m1 0h5m1 0h3m-77 1h4m2 0h3m1 0h1m1 0h1m5 0h1m1 0h2m1 0h4m6 0h4m2 0h2m2 0h2m1 0h1m1 0h1m1 0h2m1 0h1m1 0h1m4 0h4m4 0h2m1 0h2m1 0h1m-75 1h1m2 0h2m2 0h1m1 0h4m2 0h4m2 0h2m1 0h1m5 0h3m4 0h1m1 0h6m6 0h2m1 0h3m1 0h2m1 0h1m2 0h5m1 0h4m1 0h2m-76 1h1m4 0h4m4 0h1m1 0h1m3 0h5m2 0h1m1 0h1m5 0h2m1 0h1m2 0h1m5 0h2m1 0h2m1 0h2m1 0h1m6 0h2m1 0h1m1 0h1m2 0h2m3 0h1m-76 1h2m2 0h1m1 0h1m2 0h1m1 0h1m3 0h2m2 0h4m1 0h2m2 0h3m3 0h2m4 0h2m2 0h2m3 0h1m6 0h3m3 0h2m4 0h1m3 0h1m1 0h1m-74 1h6m1 0h1m2 0h4m2 0h2m3 0h1m3 0h2m4 0h4m1 0h2m5 0h2m1 0h3m2 0h2m1 0h9m3 0h1m2 0h3m-72 1h2m1 0h1m1 0h3m2 0h3m2 0h1m2 0h1m1 0h1m1 0h2m1 0h1m2 0h1m1 0h3m4 0h2m1 0h1m1 0h1m1 0h1m1 0h1m3 0h1m2 0h1m1 0h3m3 0h2m3 0h2m1 0h3m-69 1h3m3 0h1m1 0h2m1 0h1m2 0h3m3 0h1m1 0h5m2 0h5m2 0h3m2 0h1m2 0h6m2 0h1m2 0h2m1 0h1m1 0h1m2 0h1m2 0h1m1 0h1m-72 1h1m1 0h2m6 0h1m1 0h2m1 0h1m2 0h1m3 0h1m1 0h2m1 0h4m4 0h1m2 0h4m1 0h1m1 0h1m3 0h1m5 0h1m1 0h1m2 0h1m5 0h2m3 0h3m-76 1h1m1 0h1m3 0h1m2 0h2m1 0h2m2 0h1m2 0h2m2 0h1m2 0h1m1 0h1m4 0h1m2 0h4m2 0h2m2 0h1m1 0h4m1 0h1m3 0h1m1 0h7m5 0h3m-74 1h1m1 0h2m6 0h2m1 0h1m2 0h2m1 0h2m1 0h1m2 0h2m1 0h2m2 0h2m5 0h2m1 0h4m4 0h3m1 0h4m1 0h2m5 0h1m1 0h1m2 0h3m1 0h1m-76 1h1m2 0h7m2 0h1m1 0h3m2 0h3m1 0h6m2 0h1m1 0h4m1 0h1m2 0h1m1 0h1m2 0h6m4 0h1m4 0h4m3 0h5m-73 1h2m1 0h2m3 0h1m1 0h3m4 0h2m1 0h1m1 0h1m1 0h1m3 0h3m1 0h1m4 0h1m1 0h1m1 0h3m1 0h2m3 0h2m2 0h1m2 0h2m1 0h1m1 0h3m2 0h2m3 0h2m1 0h1m-76 1h5m1 0h1m1 0h2m2 0h1m1 0h1m1 0h1m1 0h3m3 0h1m1 0h1m1 0h1m3 0h4m1 0h3m3 0h1m2 0h1m1 0h1m1 0h3m1 0h1m1 0h1m2 0h5m1 0h1m2 0h1m1 0h1m1 0h2m1 0h1m-76 1h2m1 0h2m3 0h2m2 0h3m1 0h3m3 0h1m1 0h1m3 0h1m1 0h5m4 0h4m2 0h2m3 0h1m1 0h10m6 0h1m3 0h2m1 0h1m-76 1h2m2 0h5m5 0h3m1 0h12m1 0h1m1 0h6m2 0h1m1 0h1m2 0h8m2 0h1m3 0h1m2 0h4m1 0h9m-75 1h4m3 0h5m2 0h2m2 0h1m1 0h4m1 0h1m2 0h3m3 0h2m3 0h3m1 0h2m1 0h2m1 0h2m4 0h1m4 0h2m3 0h1m7 0h2m-76 1h6m1 0h2m2 0h2m4 0h1m2 0h1m2 0h1m4 0h1m3 0h3m2 0h1m4 0h1m1 0h1m1 0h1m2 0h5m1 0h1m1 0h1m3 0h1m2 0h1m1 0h3m3 0h2m-75 1h6m1 0h7m1 0h5m3 0h2m1 0h1m3 0h3m1 0h2m1 0h1m1 0h6m1 0h1m1 0h3m3 0h2m1 0h1m1 0h3m2 0h4m4 0h2m-72 1h1m2 0h2m4 0h1m2 0h1m3 0h2m1 0h2m2 0h4m1 0h2m4 0h2m3 0h1m7 0h1m1 0h3m2 0h1m3 0h1m1 0h2m1 0h3m1 0h1m1 0h5m-74 1h1m1 0h1m2 0h1m3 0h1m1 0h2m1 0h1m6 0h2m3 0h1m1 0h2m3 0h3m1 0h1m2 0h2m1 0h2m1 0h3m1 0h1m3 0h5m8 0h1m1 0h6m-77 1h2m3 0h3m3 0h6m1 0h1m1 0h3m2 0h3m1 0h1m3 0h1m2 0h4m3 0h1m1 0h4m1 0h2m1 0h1m2 0h1m1 0h2m1 0h1m1 0h1m3 0h1m1 0h2m3 0h1m-75 1h2m2 0h1m3 0h3m1 0h2m2 0h2m1 0h1m2 0h2m4 0h2m1 0h2m1 0h2m1 0h1m6 0h1m4 0h7m2 0h1m3 0h1m1 0h1m2 0h1m5 0h1m1 0h1m-71 1h3m2 0h1m2 0h4m3 0h2m2 0h1m3 0h1m2 0h1m1 0h1m1 0h3m3 0h3m6 0h3m9 0h2m4 0h5m1 0h1m1 0h1m-77 1h5m2 0h6m1 0h1m1 0h1m5 0h1m1 0h2m2 0h5m2 0h2m2 0h1m2 0h2m1 0h2m3 0h2m2 0h4m4 0h1m3 0h1m1 0h1m1 0h3m2 0h2m-76 1h2m1 0h4m2 0h2m1 0h6m3 0h1m2 0h3m5 0h2m1 0h3m3 0h1m1 0h2m1 0h1m5 0h1m1 0h1m2 0h1m1 0h3m3 0h5m3 0h2m-76 1h1m8 0h7m1 0h1m1 0h1m2 0h1m4 0h2m3 0h1m1 0h1m4 0h3m2 0h1m3 0h4m2 0h1m1 0h2m1 0h1m2 0h1m1 0h1m1 0h1m2 0h1m3 0h1m2 0h1m-77 1h1m1 0h1m1 0h4m1 0h1m1 0h2m1 0h2m4 0h2m3 0h3m1 0h3m3 0h2m4 0h1m5 0h7m4 0h1m3 0h3m1 0h2m1 0h1m1 0h2m2 0h1m-75 1h1m1 0h1m10 0h2m1 0h1m3 0h5m2 0h4m5 0h1m1 0h4m3 0h1m1 0h1m1 0h1m1 0h1m4 0h1m1 0h2m1 0h1m3 0h2m1 0h2m4 0h1m-75 1h1m3 0h5m3 0h1m1 0h1m2 0h3m5 0h1m5 0h3m4 0h3m1 0h2m5 0h2m1 0h2m1 0h1m1 0h1m1 0h5m2 0h1m1 0h3m2 0h1m-74 1h2m6 0h1m1 0h1m1 0h1m4 0h1m2 0h4m1 0h4m1 0h3m1 0h1m1 0h1m1 0h1m3 0h3m4 0h1m1 0h2m1 0h2m2 0h1m1 0h7m4 0h1m2 0h2m-77 1h5m1 0h1m2 0h1m1 0h1m3 0h1m2 0h4m1 0h1m2 0h2m3 0h1m3 0h2m4 0h3m4 0h2m1 0h2m1 0h1m6 0h5m1 0h2m2 0h6m-70 1h1m3 0h2m1 0h1m1 0h2m5 0h3m3 0h4m2 0h1m3 0h5m3 0h4m5 0h2m2 0h1m1 0h3m3 0h1m3 0h1m2 0h1m-76 1h12m1 0h2m2 0h3m4 0h5m4 0h3m1 0h4m1 0h3m1 0h6m1 0h1m3 0h1m3 0h3m1 0h1m2 0h6m-74 1h2m1 0h2m3 0h3m1 0h6m2 0h3m1 0h1m3 0h2m1 0h2m1 0h1m2 0h1m6 0h3m3 0h1m2 0h5m1 0h3m1 0h2m3 0h1m3 0h2m1 0h2m-76 1h1m1 0h2m1 0h1m1 0h1m1 0h3m1 0h2m2 0h7m1 0h1m1 0h2m1 0h1m2 0h4m3 0h3m1 0h2m1 0h1m1 0h5m2 0h2m2 0h3m1 0h4m1 0h1m1 0h1m3 0h1m-77 1h5m3 0h2m1 0h1m1 0h5m2 0h1m1 0h1m1 0h1m3 0h1m1 0h1m2 0h1m1 0h3m2 0h3m1 0h1m1 0h1m3 0h1m1 0h1m1 0h1m1 0h2m1 0h2m1 0h2m4 0h1m3 0h2m1 0h1m-76 1h2m2 0h6m2 0h1m1 0h7m3 0h5m1 0h5m1 0h1m1 0h4m1 0h1m1 0h6m10 0h3m1 0h1m1 0h7m1 0h1m-76 1h2m1 0h1m1 0h1m1 0h3m1 0h1m1 0h3m2 0h2m1 0h3m2 0h1m3 0h4m6 0h1m5 0h3m3 0h5m1 0h5m1 0h4m3 0h2m2 0h2m-75 1h2m2 0h1m1 0h3m1 0h1m1 0h2m3 0h3m9 0h1m3 0h4m4 0h1m2 0h1m2 0h3m1 0h1m2 0h1m1 0h1m1 0h4m2 0h1m4 0h1m3 0h1m-75 1h1m1 0h1m8 0h1m1 0h2m1 0h1m4 0h4m3 0h3m3 0h1m1 0h1m1 0h1m2 0h1m1 0h1m1 0h2m3 0h2m2 0h1m1 0h4m1 0h3m3 0h2m2 0h1m2 0h2m-74 1h1m2 0h1m2 0h1m2 0h1m1 0h3m1 0h1m8 0h3m1 0h1m1 0h3m2 0h1m2 0h1m2 0h2m1 0h1m1 0h1m3 0h1m2 0h1m2 0h1m2 0h1m1 0h2m2 0h3m1 0h3m-75 1h1m1 0h2m1 0h1m1 0h1m1 0h1m1 0h1m11 0h1m1 0h2m2 0h2m1 0h2m5 0h3m4 0h2m3 0h2m1 0h2m1 0h1m1 0h3m2 0h1m1 0h1m4 0h1m1 0h1m1 0h2m-76 1h1m2 0h3m2 0h1m1 0h5m2 0h4m4 0h3m2 0h1m1 0h7m1 0h1m1 0h1m5 0h3m5 0h2m2 0h1m1 0h2m7 0h1m1 0h1m1 0h1m-75 1h1m4 0h6m2 0h2m1 0h1m1 0h1m2 0h1m1 0h1m1 0h1m2 0h3m2 0h3m3 0h2m3 0h1m2 0h1m7 0h4m2 0h1m2 0h3m3 0h5m-77 1h3m1 0h3m1 0h2m4 0h1m2 0h2m2 0h1m1 0h3m1 0h3m3 0h2m2 0h4m1 0h1m2 0h2m4 0h1m1 0h1m4 0h2m1 0h1m1 0h2m3 0h1m1 0h5m-67 1h2m2 0h2m2 0h4m3 0h1m1 0h1m3 0h7m1 0h2m5 0h1m1 0h2m2 0h1m1 0h1m1 0h1m1 0h1m8 0h1m1 0h1m1 0h1m1 0h1m1 0h1m-73 1h11m1 0h4m1 0h4m4 0h2m2 0h2m3 0h3m5 0h1m2 0h1m2 0h3m5 0h1m2 0h2m1 0h4m1 0h1m3 0h1m1 0h2m-76 1h3m2 0h1m2 0h4m1 0h4m1 0h1m3 0h1m2 0h2m1 0h4m3 0h1m1 0h1m2 0h5m1 0h1m4 0h2m2 0h3m1 0h2m1 0h1m3 0h2m1 0h1m1 0h3m1 0h2m-76 1h3m2 0h1m2 0h1m1 0h1m5 0h2m2 0h1m2 0h2m1 0h3m1 0h1m1 0h8m1 0h1m2 0h1m2 0h2m2 0h2m4 0h5m5 0h1m1 0h2m1 0h1m-73 1h1m1 0h3m1 0h1m1 0h2m4 0h2m3 0h3m1 0h1m4 0h1m2 0h2m1 0h1m4 0h1m1 0h1m1 0h1m1 0h2m7 0h1m2 0h1m3 0h1m1 0h1m3 0h1m1 0h4m-74 1h1m1 0h1m1 0h4m2 0h2m1 0h2m2 0h2m1 0h2m2 0h1m2 0h3m1 0h1m1 0h4m1 0h2m5 0h1m3 0h3m1 0h1m2 0h2m3 0h1m1 0h2m-65 1h1m1 0h1m1 0h1m2 0h1m1 0h1m1 0h1m1 0h3m1 0h1m8 0h2m1 0h2m1 0h1m2 0h1m1 0h1m2 0h4m7 0h1m5 0h3m3 0h2m3 0h5m1 0h2m-75 1h1m2 0h3m1 0h1m2 0h1m3 0h5m1 0h2m2 0h1m2 0h1m5 0h2m2 0h3m3 0h3m1 0h2m1 0h4m1 0h1m1 0h4m3 0h2m2 0h2m3 0h2m-72 1h1m2 0h1m1 0h2m3 0h6m1 0h1m1 0h2m1 0h2m1 0h4m1 0h1m2 0h1m2 0h2m2 0h1m1 0h2m4 0h2m1 0h2m2 0h1m1 0h1m1 0h2m4 0h3m1 0h1m-73 1h4m1 0h2m1 0h1m2 0h1m2 0h1m1 0h5m2 0h5m1 0h2m1 0h1m1 0h5m2 0h2m1 0h9m8 0h2m1 0h2m1 0h5m3 0h1m-69 1h1m3 0h2m1 0h2m3 0h5m3 0h3m4 0h1m1 0h1m1 0h2m1 0h3m1 0h1m3 0h1m5 0h2m1 0h2m1 0h1m1 0h1m1 0h3m3 0h1m1 0h2m-76 1h7m1 0h1m1 0h1m1 0h1m1 0h1m1 0h9m1 0h1m1 0h2m2 0h7m1 0h2m1 0h1m1 0h2m1 0h1m1 0h2m1 0h1m2 0h3m4 0h3m1 0h2m1 0h1m1 0h2m-74 1h1m5 0h1m5 0h3m2 0h2m2 0h1m1 0h2m3 0h1m3 0h1m1 0h1m2 0h1m2 0h7m3 0h1m1 0h5m2 0h2m2 0h2m1 0h1m1 0h1m3 0h2m-74 1h1m1 0h3m1 0h1m1 0h4m1 0h1m3 0h1m1 0h1m1 0h2m1 0h5m2 0h1m1 0h7m2 0h2m2 0h6m1 0h1m3 0h1m3 0h1m1 0h2m3 0h5m-73 1h1m1 0h3m1 0h1m1 0h5m1 0h1m1 0h1m1 0h1m1 0h1m1 0h2m5 0h4m2 0h1m1 0h1m1 0h1m1 0h3m5 0h4m3 0h2m1 0h2m2 0h1m10 0h2m-76 1h1m1 0h3m1 0h1m1 0h2m4 0h1m2 0h4m2 0h3m1 0h1m1 0h6m1 0h1m1 0h1m1 0h2m2 0h1m3 0h1m6 0h1m3 0h1m1 0h2m2 0h1m1 0h3m1 0h2m1 0h2m-76 1h1m5 0h1m1 0h2m3 0h3m1 0h3m1 0h1m2 0h2m2 0h1m1 0h1m1 0h1m1 0h1m3 0h5m4 0h2m3 0h1m2 0h2m2 0h3m2 0h3m4 0h3m1 0h1m-76 1h7m1 0h2m4 0h2m4 0h3m2 0h3m1 0h1m1 0h1m1 0h1m1 0h3m3 0h1m3 0h1m4 0h3m1 0h1m3 0h1m1 0h6m1 0h1m1 0h2m1 0h2"/></svg>
